<svg xmlns="http://www.w3.org/2000/svg" viewBox="0 0 471.8 471.8"><path fill="#E4001B" d="M426.8 471.8H45c-24.9 0-45-20.1-45-45V45C0 20.1 20.1 0 45 0h381.8c24.9 0 45 20.1 45 45v381.8c0 24.9-20.2 45-45 45z"/><g fill="#FFF"><path d="M272.3 132.4c15.9 0 28.7-12.9 28.7-28.7S288.1 75 272.3 75h-1.1c-15.6.3-28 13.2-27.7 28.7.1 15.8 13 28.7 28.8 28.7zM123 245.9c-42.8 0-77.5 34.7-77.5 77.5s34.7 77.4 77.5 77.4 77.5-34.7 77.5-77.5-34.8-77.4-77.5-77.4zm51.8 77c.3 28.4-22.5 51.5-50.8 51.8h-1.1c-28.4.3-51.5-22.5-51.8-50.8v-1.1c0-28.3 23.6-51.8 51.8-51.8 28.4-.3 51.5 22.5 51.8 50.8.1.4.1.7.1 1.1zm174-77c-42.8 0-77.5 34.7-77.5 77.5s34.7 77.5 77.5 77.5 77.5-34.7 77.5-77.5-34.7-77.5-77.5-77.5zm51.9 77c.3 28.4-22.5 51.5-50.8 51.8h-1.1c-28.4.3-51.5-22.5-51.8-50.8v-1.1c0-28.3 23.1-51.8 51.8-51.8 28.4-.3 51.5 22.5 51.8 50.8.1.4.1.7.1 1.1z"/><path d="M317 204.3c7.7 0 17.9 1.6 23.1-3.6 6.1-5.7 1.6-17-6.6-17l-48.7-2c-5.7-1.6-17.9-24.7-21.5-29.8-7.2-10.2-12.3-24.2-23.6-29.2-20.6-9.7-38 16.5-60 38.5L154 186.7c-10.8 10.2-13.8 26.2-1.6 36.9 4.6 4.6 55 30.8 66.7 38 1.1 13.8-1.6 64.1 2 72.9 3.6 8.2 15.9 12.3 24.2 6.6 8.8-6.1 7.7-18.5 7.7-30.8 0-80.1 14.9-63.6-48.7-104.7l39.6-38c28 42.3 11.5 36.7 73.1 36.7z"/></g></svg>